<svg xmlns="http://www.w3.org/2000/svg" viewBox="0 0 500 500"><g id="freepik--Character--inject-2"><g id="freepik--character--inject-2"><path d="M335,324.64c0-.2,1.15-11.86,1.15-11.86s-.83,1.2-7.56.6a36.89,36.89,0,0,1-7.51-1.74l-.44,8.46c-1.18,3.43-7.11,3-13.46,3.32-1.07.06-2.17.06-3.28.06h-.07c-3.39.39-6.42,3-2.44,5.26s9.94,2.36,15.43,2.41C323.39,331.22,334.92,331.18,335,324.64Z" style="fill:#ffa8a7"></path><path d="M290.1,331.31a6.68,6.68,0,0,0,.12,3.5c.34,1.22,4.13,4.9,10,6.55s12.59.67,15.88,1,6.48,1.68,10.33,1.94,7.59.12,10.88-2.95c.5-1.17.84-3.73.58-3.93C337.18,336.92,290.1,331.31,290.1,331.31Z" style="fill:#263238;opacity:0.9"></path><path d="M319.83,321.35c-2.11,2.06-7.24,1.76-12.67,2.07-5.13.28-11.09-.51-14.3,1.26s-3.77,5.76,1.73,10.13c1.59,1.26,3.37,2.93,5.11,3.61,5.76,2.26,11.81,1.09,15.66,1.37,5,.36,8,2,12.54,1.79,5.86-.32,9.25-2.42,10-4.12s-.47-14.25-2.89-13.57c0,0-.35,4.18-10.41,1.9C320.19,324.79,319.82,322.28,319.83,321.35Z" style="fill:#90CAF9"></path><path d="M319.83,321.35c-2.11,2.06-7.24,1.76-12.67,2.07-5.13.28-11.09-.51-14.3,1.26s-3.77,5.76,1.73,10.13c1.59,1.26,3.37,2.93,5.11,3.61,5.76,2.26,11.81,1.09,15.66,1.37,5,.36,8,2,12.54,1.79,5.86-.32,9.25-2.42,10-4.12s-.47-14.25-2.89-13.57c0,0-.35,4.18-10.41,1.9C320.19,324.79,319.82,322.28,319.83,321.35Z" style="opacity:0.5"></path><path d="M299.7,338.42s-2-13,5.41-14.94l.95,0s-.15-.89-3.06-1.11c-5.6-.44-9.12.26-11.47,2.67a7.23,7.23,0,0,0-1.47,6.18C290.78,333.7,293.67,336.6,299.7,338.42Z" style="fill:#fff"></path><path d="M305,330.73s-.35-5.32,3.27-7.37a2.06,2.06,0,0,1,2.18-.09s-3.5,1.14-3.62,7.47c0,0-.12.44-.92.43C305.66,331.17,305.06,331.17,305,330.73Z" style="fill:#fff"></path><path d="M313.83,323.12s0-.18-1-.19a1.63,1.63,0,0,0-1,.3s-2.67,1.74-2.27,7.3a1,1,0,0,0,1,.69.82.82,0,0,0,.94-.72S311.14,324.65,313.83,323.12Z" style="fill:#fff"></path><path d="M317,322.7s-.22-.3-.9-.18c-.85.15-1,.51-1,.51s-1.7,2.46-.94,7c0,0,.05.79,1.14.68s.79-.95.79-.95S315.42,323.91,317,322.7Z" style="fill:#fff"></path><path d="M320,249.29c-.48,11.67-.09,65.92-.09,65.92s7.17,6,16.21,2.91l5.61-62.28Z" style="fill:#37474f"></path><path d="M302.88,344.63c0-.2,2.13-11.33,2.13-11.33s-2.12,1.42-8.86,1a30.21,30.21,0,0,1-6.66-1.25l-1.09,8.2c-1.07,3.46-7,3.17-13.35,3.72-1.06.1-2.17.14-3.28.17h-.06c-3.39.49-6.33,3.18-2.28,5.33s10,2.06,15.49,1.95C291.51,352.32,303,351.17,302.88,344.63Z" style="fill:#ffa8a7"></path><path d="M258.24,353.41a6.63,6.63,0,0,0,.23,3.5c.37,1.21,4.27,4.77,10.17,6.24s12.61.29,15.91.56,6.53,1.48,10.38,1.63,7.59-.11,10.79-3.29c.46-1.18.73-3.75.46-3.94C305.47,357.59,258.24,353.41,258.24,353.41Z" style="fill:#263238;opacity:0.9"></path><path d="M287.65,342.56c-2,2.12-7.18,2-12.6,2.44-5.11.45-11.1-.17-14.26,1.7s-3.59,5.88,2,10.07c1.63,1.22,3.46,2.83,5.22,3.46,5.82,2.08,11.84.73,15.7.89,5,.21,8.05,1.79,12.58,1.41,5.85-.49,9.17-2.7,9.85-4.42s-.9-14.23-3.3-13.48c0,0-.22,4.2-10.35,2.22C288.11,346,287.67,343.49,287.65,342.56Z" style="fill:#90CAF9"></path><path d="M287.65,342.56c-2,2.12-7.18,2-12.6,2.44-5.11.45-11.1-.17-14.26,1.7s-3.59,5.88,2,10.07c1.63,1.22,3.46,2.83,5.22,3.46,5.82,2.08,11.84.73,15.7.89,5,.21,8.05,1.79,12.58,1.41,5.85-.49,9.17-2.7,9.85-4.42s-.9-14.23-3.3-13.48c0,0-.22,4.2-10.35,2.22C288.11,346,287.67,343.49,287.65,342.56Z" style="opacity:0.5"></path><path d="M268.05,360.23s-2.35-13,4.95-15.1l1-.06s-.18-.89-3.1-1c-5.61-.27-9.11.54-11.39,3a7.23,7.23,0,0,0-1.27,6.22C259,355.78,262,358.59,268.05,360.23Z" style="fill:#fff"></path><path d="M273.14,352.38s-.52-5.31,3-7.47a2.06,2.06,0,0,1,2.18-.15s-3.47,1.24-3.4,7.58c0,0-.1.44-.91.46C273.78,352.8,273.19,352.81,273.14,352.38Z" style="fill:#fff"></path><path d="M281.71,344.5s0-.17-1-.16a1.62,1.62,0,0,0-1,.33s-2.61,1.82-2,7.37a1,1,0,0,0,1.06.66.81.81,0,0,0,.91-.74S279.06,346.12,281.71,344.5Z" style="fill:#fff"></path><path d="M284.81,344s-.23-.29-.9-.15c-.85.17-1,.54-1,.54s-1.61,2.51-.72,7.05c0,0,.07.79,1.16.65s.76-1,.76-1S283.32,345.24,284.81,344Z" style="fill:#fff"></path><path d="M291.58,272C290.21,284,288.93,319,288,336.48a24.11,24.11,0,0,0,17.44,1.94l12.45-62.76Z" style="fill:#455a64"></path><path d="M369.9,415.12a1.46,1.46,0,0,1-1.46-1.46V319.94a1.46,1.46,0,0,1,2.92,0v93.72A1.46,1.46,0,0,1,369.9,415.12Z" style="fill:#455a64"></path><path d="M427.89,381a1.46,1.46,0,0,1-1.36-.93l-28.74-72.74a1.47,1.47,0,0,1,.82-1.89,1.45,1.45,0,0,1,1.89.82L429.24,379a1.45,1.45,0,0,1-.82,1.89A1.4,1.4,0,0,1,427.89,381Z" style="fill:#455a64"></path><path d="M424.44,372.27a1.42,1.42,0,0,1-1.06-.46L369.9,315.22l-53.38,56.35a1.46,1.46,0,1,1-2.12-2l54.44-57.47a1.48,1.48,0,0,1,1.06-.46h0a1.46,1.46,0,0,1,1.06.46l54.54,57.71a1.46,1.46,0,0,1-.06,2.06A1.43,1.43,0,0,1,424.44,372.27Z" style="fill:#455a64"></path><path d="M311.91,381a1.48,1.48,0,0,1-1.35-2l28.74-72.74a1.46,1.46,0,0,1,2.71,1.07l-28.74,72.74A1.45,1.45,0,0,1,311.91,381Z" style="fill:#455a64"></path><path d="M311.21,287.8c-1-5.88,3.75-10.47,12.76-16.55a213.3,213.3,0,0,1,26.1-14.67c7.54-3.46,15.25-3.14,24.91,1.82,13.4,6.89,53.75,31.36,53.75,31.36s-60.32,34.05-71.93,32.53-40.62-20.4-42.91-27S311.21,287.8,311.21,287.8Z" style="fill:#90CAF9"></path><path d="M362.63,315.12c-8.66,7.84-17.71,1.1-32-8.2-16.21-10.52-19.39-19.12-19.39-19.12s0,6.45,1.21,9.47,3.83,6.45,15.52,14.51,20.15,12.09,28,13.59l6.2-.86" style="fill:#90CAF9"></path><path d="M330.6,306.92c-16.21-10.52-19.39-19.12-19.39-19.12s0,6.45,1.21,9.47,3.83,6.45,15.52,14.51,20.15,12.09,28,13.59l6.2-.86.48-9.39C354,323,344.92,316.22,330.6,306.92Z" style="opacity:0.5"></path><path d="M425.91,370l3.8,10a1.15,1.15,0,0,1,0,.26.54.54,0,0,1,0,.18,1.16,1.16,0,0,1-.57.63,2.54,2.54,0,0,1-2.31,0,1,1,0,0,1-.45-.47v0l0-.14-3.52-9.4Z" style="fill:#90CAF9"></path><path d="M313.9,370l-3.8,10a.78.78,0,0,0,0,.26v.18a1.24,1.24,0,0,0,.57.63,2.56,2.56,0,0,0,2.32,0,1.05,1.05,0,0,0,.45-.47v0l0-.14,3.52-9.4Z" style="fill:#90CAF9"></path><path d="M371.58,406.41v8.29a.83.83,0,0,1-.49.69,2.63,2.63,0,0,1-2.38,0,.85.85,0,0,1-.49-.69v-8.29A3.57,3.57,0,0,1,371.58,406.41Z" style="fill:#90CAF9"></path><path d="M409.8,264.48s-48.39-14.6-56.81-16.9-24.55-6.19-29.26-4.07-7.11,4.56-7.55,11.36c-.09,1.28,0,7.51,0,7.51s24.51,10,43.68,10S409.8,264.48,409.8,264.48Z" style="fill:#37474f"></path><path d="M410,258.42c3,10.36,4,20.5-3.27,28-5.27,5.44-27.15,24.84-46.32,19-21.43-6.57-47-25.17-47-25.17s-16.54.51-16.63-4.35c0-1.19-5.22-2.66-5.16-3.95.67-14.26,10.26-20.19,24.56-17.6,15,2.72,48.55,12.28,48.55,12.28Z" style="fill:#455a64"></path><path d="M386,301.56c3.6-13.17,7.92-29.88,7.92-29.88l-19.77,6.23c-4.09,12.93-6.16,19.95-16.37,18.29s-44.44-16-44.44-16,25.58,18.6,47,25.17C369,308,378.09,305.54,386,301.56Z" style="fill:#37474f"></path><path d="M377.61,189.54c-4.52-1.7-8.65-.12-19.77,3.91-13,4.71-27.89,10.09-27.89,10.09l-16.88-33.88c-2.13-4.56-3.71-7.59-7.55-10.83A12,12,0,0,0,300,157.4c-5.91.22-17.37,6.29-11.35,12.17,3.58,3.49,9.76,4.89,13.15,7,1.8,1.13,2.74,4,3.52,6.12,3.41,9.43,9.62,29,11.25,33.32,1.77,4.65,6,5.94,11.82,4.61,8.52-1.94,47.2-12.46,47.2-12.46Z" style="fill:#ffa8a7"></path><path d="M300,165.31l-10.32,5.17a4,4,0,0,1,.88.67l5.8-2.22c1.89-.71,4.21-1.72,4.21-1.72s4.32.54,6.41-.42S300,165.31,300,165.31Z" style="fill:#f28f8f"></path><path d="M377.61,188.62s-1.59-1.71-9.25.29S343.22,198,343.22,198s-7.62,8.86,2.35,19.49L374.19,210l3.42-11.08V188.62" style="fill:#455a64"></path><path d="M413,199.32c-1.6-5.26-5.49-9.85-11.83-10.41-1.55.26-4.19.51-5.66.76-2.59,1.27-9.39,1.87-17.89-.13a18.28,18.28,0,0,0-7.71,4.07c-4.86,4.21-7.75,10.57-10.47,30.32,0,0-3.67,31-3.91,40,5.92,17.09,34.25,16.65,42.55,13.39,17.36-6.81,17.84-17.48,17.84-17.48s-.38-26.3-.6-40.74C415.12,206.83,414.08,202.92,413,199.32Z" style="fill:#f5f5f5"></path><path d="M404.44,193.45c-1.43-.53-8.35,6.38-8.35,6.38s-3,10.27.4,18.55,4.4,11.14,4.4,11.14-14.33,7.67-20.44,27.31c-2.89,9.3-4.93,16.29-6.27,21.08,9.37,2.09,19.47,1.16,23.89-.58,17.36-6.81,17.84-17.48,17.84-17.48s-.38-26.3-.6-40.74c-.05-3.25-.16-5.9-.31-8.12C410.14,202.34,405.16,193.71,404.44,193.45Z" style="fill:#e0e0e0"></path><path d="M279.09,173a.29.29,0,0,0,.32.05l2.18-1.2a.26.26,0,0,0-.25-.45l-2.18,1.19a.25.25,0,0,0-.1.35Z" style="fill:#263238"></path><path d="M286.75,172l-5.59.75a.87.87,0,0,1-.73-1.48l4-4Z" style="fill:#90CAF9"></path><g style="opacity:0.2"><path d="M286.75,172l-5.59.75a.87.87,0,0,1-.73-1.48l4-4Z"></path></g><path d="M313.65,152.68a1.35,1.35,0,0,1,1.47.45c1.19,1.17,1.85,3.93.49,4.47L286.75,172a3.45,3.45,0,0,1-2.25-2.3,3.37,3.37,0,0,1-.06-2.46Z" style="fill:#90CAF9"></path><g style="opacity:0.5"><path d="M313.65,152.68a1.35,1.35,0,0,1,1.47.45c1.19,1.17,1.85,3.93.49,4.47L286.75,172a3.45,3.45,0,0,1-2.25-2.3,3.37,3.37,0,0,1-.06-2.46Z"></path></g><path d="M317.05,152.69a1.13,1.13,0,0,1,1.51.49,1.11,1.11,0,0,1-.49,1.5l-2.32,1.15h0a.57.57,0,0,1-.56-.08,1.76,1.76,0,0,1-.71-1.42.55.55,0,0,1,.26-.5h0Z" style="fill:#37474f"></path><path d="M303.19,157.88a15.68,15.68,0,0,0-2.2-1.53,9.5,9.5,0,0,0-3.75-1.33,2.94,2.94,0,0,0-1.5.14,4.52,4.52,0,0,0-1.24.94c-2,1.85-4.77,2.46-6.76,4.28-1.76,1.62-4.7,6.82-3.53,8.55.73,1.08,3.14-.61,4.26-2.05,0,1.32,2,1.27,3.87-1,1.59-1.9,3.49-4.43,3.49-4.43Z" style="fill:#ffa8a7"></path><path d="M296,159.14a1.6,1.6,0,0,0-1,1.3,4.14,4.14,0,0,0,.15,1.84l.66-.87Z" style="fill:#f28f8f"></path><path d="M313.07,169.66c-1.77-3.68-1.66-6.79-5-8.22s-5-1-8.89-2.3c-5.52-1.85-4.15,3.6.34,5.91s7.52,1.74,7.52,1.74S309.73,174.36,313.07,169.66Z" style="fill:#ffa8a7"></path><path d="M403.07,146.3c-2-3.15-3.92-2.68-3.92-2.68l-.46,3.62c-5.51-6.74-20-12.93-26.4-12.93-8,0-14.48,6.75-14.48,15.08s6.49,15.08,14.48,15.08c5.94,0,18.81-2.13,25.06-6.63l-.48,3.73-1.37-.16.1,18.7s3.11-.75,4.18-2.88,2.7-15,2.7-15C405.2,155.09,404.8,149,403.07,146.3Z" style="fill:#90CAF9"></path><path d="M403.07,146.3c-2-3.15-3.92-2.68-3.92-2.68l-.46,3.62-1.34,10.6-.48,3.73-1.37-.16.1,18.7s3.11-.75,4.18-2.88,2.7-15,2.7-15C405.2,155.09,404.8,149,403.07,146.3Z" style="opacity:0.5"></path><path d="M372.29,134.31c-8,0-14.48,6.75-14.48,15.08s6.49,15.08,14.48,15.08c5.94,0,18.81-2.13,25.06-6.63l1.34-10.6C393.18,140.5,378.69,134.31,372.29,134.31Z" style="opacity:0.6000000000000001"></path><path d="M396,162.81c1,.63,1.55-1.53,2.78-2.87s4.83-3.08,7.35,1.34-2,9.86-4.18,10.68c-4.25,1.57-6.24-1-6.24-1l-.19,18.74c-5.55,4.86-22.13,4.7-18,1.41l0-6.39s-5,.78-7.38.39c-4-.65-6.55-4-7.77-8.49-2-7.29-2.71-13.17-1-27.5,1.82-15.7,19.36-15.86,28.83-9.66S396,162.81,396,162.81Z" style="fill:#ffa8a7"></path><path d="M405.2,141a3.29,3.29,0,0,0-4.59-1.58,3.55,3.55,0,0,0-1.11,1,7.92,7.92,0,0,0-2-4.31c-2.36-2.72-6.32-3-13.07-4.12a72.26,72.26,0,0,1-8-1.45c-2.74-.77-5.44-2.6-8-3.89a4,4,0,0,0-2.71-.63,2.66,2.66,0,0,0-1.72,2,7.76,7.76,0,0,0-.05,2.72c-1.57-1.73-4.62-1.47-6.22.22a6.35,6.35,0,0,0-1,6.56,11.64,11.64,0,0,0,4.53,5.18c8.49,5.73,18.5,4.14,28,3a2.6,2.6,0,0,1,1.36.09c1.48.68,1.8,5.3,2.06,6.63.88,4.5,1.61,12.13,3.3,12.16.51,0,1.54-3.45,2.78-4.63,1.5-1.42.7-12.58.45-15.57Z" style="fill:#90CAF9"></path><path d="M405.2,141a3.29,3.29,0,0,0-4.59-1.58,3.55,3.55,0,0,0-1.11,1,7.92,7.92,0,0,0-2-4.31c-2.36-2.72-6.32-3-13.07-4.12a72.26,72.26,0,0,1-8-1.45c-2.74-.77-5.44-2.6-8-3.89a4,4,0,0,0-2.71-.63,2.66,2.66,0,0,0-1.72,2,7.76,7.76,0,0,0-.05,2.72c-1.57-1.73-4.62-1.47-6.22.22a6.35,6.35,0,0,0-1,6.56,11.64,11.64,0,0,0,4.53,5.18c8.49,5.73,18.5,4.14,28,3a2.6,2.6,0,0,1,1.36.09c1.48.68,1.8,5.3,2.06,6.63.88,4.5,1.61,12.13,3.3,12.16.51,0,1.54-3.45,2.78-4.63,1.5-1.42.7-12.58.45-15.57Z" style="opacity:0.5"></path><path d="M377.49,184.68s9-1.88,12.12-3.62a10.59,10.59,0,0,0,4.34-4.47,15,15,0,0,1-2.47,5.27c-2.3,3.06-14,5.31-14,5.31Z" style="fill:#f28f8f"></path><path d="M380.73,159.94a1.81,1.81,0,1,0,1.8-1.95A1.89,1.89,0,0,0,380.73,159.94Z" style="fill:#263238"></path><path d="M383.83,152.15l3.85,2.21a2.47,2.47,0,0,0-.9-3.19A2.1,2.1,0,0,0,383.83,152.15Z" style="fill:#263238"></path><path d="M381.08,172.72,375.34,175a3,3,0,0,0,3.9,2A3.38,3.38,0,0,0,381.08,172.72Z" style="fill:#f28f8f"></path><path d="M362.76,154l4-2a2.08,2.08,0,0,0-2.87-1.15A2.5,2.5,0,0,0,362.76,154Z" style="fill:#263238"></path><path d="M364.76,159.94a1.86,1.86,0,0,0,1.8,1.94,2,2,0,1,0-1.8-1.94Z" style="fill:#263238"></path><polygon points="374.27 158.51 375.34 169.83 368.76 169.08 374.27 158.51" style="fill:#f28f8f"></polygon><path d="M382.3,155.3a4.79,4.79,0,0,0,0,9.57h.88a4.79,4.79,0,0,0,0-9.57Zm.88,10.55h-.88a5.76,5.76,0,0,1,0-11.52h.88a5.76,5.76,0,0,1,0,11.52Z" style="fill:#263238"></path><path d="M365.08,155.3a4.79,4.79,0,0,0,0,9.57H366a4.79,4.79,0,0,0,0-9.57Zm.87,10.55h-.87a5.76,5.76,0,0,1,0-11.51H366a5.76,5.76,0,0,1,0,11.52Z" style="fill:#263238"></path><path d="M376.72,159a3.72,3.72,0,0,0-3-1.55,3,3,0,0,0-2.6,1l-.76-.58a3.87,3.87,0,0,1,3.41-1.39,4.62,4.62,0,0,1,3.75,2Z" style="fill:#263238"></path><path d="M399.19,159.54H388.34v-.91h12.55A5.35,5.35,0,0,0,399.19,159.54Z" style="fill:#263238"></path><path d="M362.15,324.51c4.93-.25,8.79-3.87,20.52-8.76,21.65-9,37.88-16.23,44.07-27.57s10.57-44.08,9-58.25a18.94,18.94,0,0,0-1.06-4.7l1.52-.22-3.94-3.36h0c-4-3.31-10.63-.36-15.59,2.34-14.18,7.71-25.26,15.21-34,42.27-6.6,20.36-10.94,38.92-20,48.85" style="fill:#90CAF9"></path><path d="M434.7,225.23l1.52-.22-3.94-3.36h0c-4-3.31-10.63-.36-15.59,2.34-14.18,7.71-25.26,15.21-34,42.27-6.6,20.36-10.94,38.92-20,48.85l-.48,9.39c4.93-.25,8.79-3.87,20.52-8.76,21.65-9,37.88-16.23,44.07-27.57s10.57-44.08,9-58.25A18.94,18.94,0,0,0,434.7,225.23Z" style="opacity:0.30000000000000004"></path><path d="M420.79,227.49c-14.17,7.71-25.25,15.2-34,42.26s-13.55,51-30.82,55.62c0,0,7.81,3.1,31.73-7,7.62-3.22,16.86-9.09,22.92-12.5,11.9-6.67,19.11-12.14,20.25-14.19,6.28-11.28,10.56-44.07,9-58.25S427.89,223.62,420.79,227.49Z" style="fill:#90CAF9"></path><path d="M408.09,235.49l2,4.7-5.14,29.15c-1.22,2.26-5.13,4.39-7,7.16a47.85,47.85,0,0,0-3.55,5.91c-.64,1.42-1.16,5,2,2.88,2.61-1.78,4.41-4.51,5.11-4.78.51-.2.27,2.18.25,2.35-.44,3.61-2.49,7.27-4.28,10.36-.86,1.49-2.64,3.85-.74,5.22a6.36,6.36,0,0,0,1.63.75,10.59,10.59,0,0,0,11.58-2.91c3.71-4.31,5-9.79,5.52-15.35a87.57,87.57,0,0,1,4.25-19.8c3.31-9.64,6.57-24.7,6-27.26-.2-.84-1.35-3.72-2.89-7.41-.67.34-1.33.68-2,1A89.42,89.42,0,0,0,408.09,235.49Z" style="fill:#37474f;opacity:0.1"></path><path d="M428.23,232.82c-.7-2.94-13.2-31.26-13.2-31.26l-14.24,9.24,11.85,28.34L407.5,268.3c-1.22,2.25-5.13,4.39-7,7.16a47.88,47.88,0,0,0-3.55,5.9c-.64,1.42-1.16,5,2,2.89,2.61-1.79,4.41-4.51,5.11-4.79.51-.2.27,2.19.25,2.36-.44,3.6-2.49,7.26-4.28,10.35-.86,1.49-2.64,3.86-.74,5.22a6,6,0,0,0,1.63.75,10.58,10.58,0,0,0,11.58-2.9c3.71-4.31,5-9.8,5.52-15.36a87.79,87.79,0,0,1,4.25-19.8C425.58,250.44,428.84,235.38,428.23,232.82Z" style="fill:#ffa8a7"></path><path d="M401.16,188.91c4.87-.31,8,.67,11.65,6.63s13.09,26.62,13.09,26.62-2.74,7.5-18.4,10.66l-9.43-20S392,195.75,401.16,188.91Z" style="fill:#455a64"></path></g></g></svg>